<svg xmlns="http://www.w3.org/2000/svg" version="1.1" xmlns:xlink="http://www.w3.org/1999/xlink" xmlns:svgjs="http://svgjs.dev/svgjs" width="1500" height="1406" viewBox="0 0 1500 1406"><g transform="matrix(1,0,0,1,0,0)"><svg viewBox="0 0 384 360" data-background-color="#000000" preserveAspectRatio="xMidYMid meet" height="1406" width="1500" xmlns="http://www.w3.org/2000/svg" xmlns:xlink="http://www.w3.org/1999/xlink"><g id="tight-bounds" transform="matrix(1,0,0,1,0,0)"><svg viewBox="0 0 384 360" height="360" width="384"><g><svg></svg></g><g><svg viewBox="0 0 384 360" height="360" width="384"><g><path d="M362.354 145.441v-42.24c0-21.12-19.163-38.402-42.587-38.402h-93.208c-15.198 0-28.337-8.831-34.559-21.646-6.222 12.81-19.36 21.646-34.559 21.646h-93.208c-23.424 0-42.587 17.282-42.587 38.402v42.24c0 15.198-8.831 28.337-21.646 34.559 12.81 6.222 21.646 19.36 21.646 34.559v42.24c0 21.12 19.163 38.402 42.587 38.402h93.208c15.198 0 28.337 8.831 34.559 21.646 6.222-12.81 19.36-21.646 34.559-21.646h93.208c23.424 0 42.587-17.282 42.587-38.402v-42.24c0-15.198 8.831-28.337 21.646-34.559-12.81-6.222-21.646-19.36-21.646-34.559z" fill="#1d9bf0" fill-rule="nonzero" stroke="none" stroke-width="1" stroke-linecap="butt" stroke-linejoin="miter" stroke-miterlimit="10" stroke-dasharray="" stroke-dashoffset="0" font-family="none" font-weight="none" font-size="none" text-anchor="none" style="mix-blend-mode: normal" data-fill-palette-color="tertiary"></path></g><g transform="matrix(1,0,0,1,76.80000000000001,109.7493770567933)"><svg viewBox="0 0 230.39999999999998 140.5012458864134" height="140.5012458864134" width="230.39999999999998"><g><svg viewBox="0 0 230.39999999999998 140.5012458864134" height="140.5012458864134" width="230.39999999999998"><g><svg viewBox="0 0 230.39999999999998 140.5012458864134" height="140.5012458864134" width="230.39999999999998"><g id="textblocktransform"><svg viewBox="0 0 230.39999999999998 140.5012458864134" height="140.5012458864134" width="230.39999999999998" id="textblock"><g><svg viewBox="0 0 230.39999999999998 109.2136303206997" height="109.2136303206997" width="230.39999999999998"><g transform="matrix(1,0,0,1,0,0)"><svg width="230.39999999999998" viewBox="2.1999999999999966 -36.209999999999994 169.14000000000004 76.38999999999999" height="109.2136303206997" data-palette-color="#ffffff"><svg></svg><svg></svg><g class="wordmark-text-0" data-fill-palette-color="quaternary" id="text-0"><path d="M27.2-10.84v0c0 2.213-0.563 4.18-1.69 5.9-1.12 1.713-2.74 3.047-4.86 4-2.113 0.953-4.593 1.43-7.44 1.43v0c-2.38 0-4.373-0.167-5.98-0.5-1.613-0.333-3.29-0.917-5.03-1.75v0-8.59c1.84 0.94 3.75 1.677 5.73 2.21 1.987 0.527 3.81 0.79 5.47 0.79v0c1.433 0 2.483-0.247 3.15-0.74 0.667-0.5 1-1.14 1-1.92v0c0-0.487-0.133-0.913-0.4-1.28-0.267-0.367-0.697-0.737-1.29-1.11-0.593-0.373-2.177-1.14-4.75-2.3v0c-2.327-1.053-4.073-2.077-5.24-3.07-1.16-0.993-2.023-2.133-2.59-3.42-0.56-1.287-0.84-2.81-0.84-4.57v0c0-3.287 1.197-5.85 3.59-7.69 2.393-1.84 5.68-2.76 9.86-2.76v0c3.7 0 7.47 0.857 11.31 2.57v0l-2.96 7.44c-3.333-1.527-6.213-2.29-8.64-2.29v0c-1.253 0-2.163 0.22-2.73 0.66-0.573 0.44-0.86 0.983-0.86 1.63v0c0 0.7 0.363 1.327 1.09 1.88 0.72 0.553 2.683 1.563 5.89 3.03v0c3.08 1.387 5.217 2.873 6.41 4.46 1.2 1.587 1.8 3.583 1.8 5.99zM63.31-35.69v35.69h-9.7v-14.55h-11.2v14.55h-9.7v-35.69h9.7v13.23h11.2v-13.23zM103.47 0h-10.55l-1.76-6.69h-11.59l-1.81 6.69h-10.6l11.65-35.84h12.86zM81.57-14.6h7.59l-1.54-5.86c-0.36-1.3-0.793-2.983-1.3-5.05-0.513-2.067-0.853-3.55-1.02-4.45v0c-0.147 0.833-0.433 2.203-0.86 4.11-0.433 1.9-1.39 5.65-2.87 11.25zM119.41-12.99h-2.44v12.99h-9.65v-35.69h11.7c9.7 0 14.55 3.513 14.55 10.54v0c0 4.133-2.02 7.333-6.06 9.6v0l10.41 15.55h-10.94zM116.97-28.39v8.15h1.8c3.373 0 5.06-1.49 5.06-4.47v0c0-2.453-1.653-3.68-4.96-3.68v0zM162.35-7.86v7.86h-21.19v-35.69h21.19v7.74h-11.54v5.61h10.69v7.74h-10.69v6.74z" fill="#ffffff" fill-rule="nonzero" stroke="none" stroke-width="1" stroke-linecap="butt" stroke-linejoin="miter" stroke-miterlimit="10" stroke-dasharray="" stroke-dashoffset="0" font-family="none" font-weight="none" font-size="none" text-anchor="none" style="mix-blend-mode: normal" data-fill-palette-color="quaternary" opacity="1"></path><path d="M28.59 39.69h-9.18l-7.3-25.71h-0.22c0.34 4.38 0.51 7.783 0.51 10.21v0 15.5h-8.54v-35.69h12.84l7.45 25.34h0.19l7.3-25.34h12.87v35.69h-8.87v-15.65c0-0.813 0.013-1.717 0.04-2.71 0.027-0.993 0.137-3.427 0.33-7.3v0h-0.22zM61.89 39.69h-9.69v-35.69h9.69zM103.59 4v35.69h-12.65l-13.03-25.15h-0.22c0.307 3.96 0.46 6.98 0.46 9.06v0 16.09h-8.55v-35.69h12.6l12.99 24.8h0.15c-0.227-3.593-0.34-6.483-0.34-8.67v0-16.13zM141.6 21.09v0c0 5.953-1.64 10.543-4.92 13.77-3.28 3.22-7.89 4.83-13.83 4.83v0h-11.55v-35.69h12.36c5.727 0 10.15 1.463 13.27 4.39 3.113 2.933 4.67 7.167 4.67 12.7zM131.59 21.43v0c0-3.273-0.647-5.7-1.94-7.28-1.293-1.58-3.26-2.37-5.9-2.37v0h-2.8v20h2.15c2.927 0 5.073-0.85 6.44-2.55 1.367-1.7 2.05-4.3 2.05-7.8zM171.34 28.85v0c0 2.213-0.563 4.18-1.69 5.9-1.12 1.713-2.74 3.047-4.86 4-2.113 0.953-4.593 1.43-7.44 1.43v0c-2.38 0-4.373-0.167-5.98-0.5-1.613-0.333-3.29-0.917-5.03-1.75v0-8.59c1.84 0.94 3.753 1.677 5.74 2.21 1.98 0.527 3.8 0.79 5.46 0.79v0c1.433 0 2.483-0.247 3.15-0.74 0.667-0.5 1-1.14 1-1.92v0c0-0.487-0.133-0.913-0.4-1.28-0.267-0.367-0.697-0.737-1.29-1.11-0.593-0.373-2.177-1.14-4.75-2.3v0c-2.327-1.053-4.073-2.077-5.24-3.07-1.16-0.993-2.023-2.133-2.59-3.42-0.56-1.287-0.84-2.81-0.84-4.57v0c0-3.287 1.197-5.85 3.59-7.69 2.393-1.84 5.68-2.76 9.86-2.76v0c3.7 0 7.47 0.857 11.31 2.57v0l-2.96 7.44c-3.333-1.527-6.213-2.29-8.64-2.29v0c-1.253 0-2.163 0.22-2.73 0.66-0.573 0.44-0.86 0.983-0.86 1.63v0c0 0.7 0.363 1.327 1.09 1.88 0.727 0.553 2.69 1.563 5.89 3.03v0c3.08 1.387 5.217 2.873 6.41 4.46 1.2 1.587 1.8 3.583 1.8 5.99z" fill="#ffffff" fill-rule="nonzero" stroke="none" stroke-width="1" stroke-linecap="butt" stroke-linejoin="miter" stroke-miterlimit="10" stroke-dasharray="" stroke-dashoffset="0" font-family="none" font-weight="none" font-size="none" text-anchor="none" style="mix-blend-mode: normal" data-fill-palette-color="quaternary" opacity="1"></path></g></svg></g></svg></g><g transform="matrix(1,0,0,1,0,121.13069173924198)"><svg viewBox="0 0 135.26783999999998 19.37055414717141" height="19.37055414717141" width="135.26783999999998"><g transform="matrix(1,0,0,1,0,0)"><svg width="135.26783999999998" viewBox="1.75 -39.65 352.61 50.5" height="19.37055414717141" data-palette-color="#ffffff"><path d="M14.5-35.25Q17.15-35.25 19.18-34.38 21.2-33.5 23.1-31.7L23.1-31.7 20.05-28.05Q18.75-29.25 17.53-29.83 16.3-30.4 14.85-30.4L14.85-30.4Q11.85-30.4 10.15-27.4 8.45-24.4 8.45-17.35L8.45-17.35Q8.45-10.4 10.15-7.38 11.85-4.35 14.95-4.35L14.95-4.35Q16.5-4.35 17.65-4.98 18.8-5.6 20.35-6.9L20.35-6.9 23.4-3.4Q21.8-1.6 19.55-0.43 17.3 0.75 14.5 0.75L14.5 0.75Q8.65 0.75 5.2-3.8 1.75-8.35 1.75-17.35L1.75-17.35Q1.75-23.3 3.4-27.3 5.05-31.3 7.93-33.27 10.8-35.25 14.5-35.25L14.5-35.25ZM36.05-27.15Q41.05-27.15 43.82-23.65 46.6-20.15 46.6-13.25L46.6-13.25Q46.6-6.65 43.8-2.95 41 0.75 36.05 0.75L36.05 0.75Q31.1 0.75 28.3-2.88 25.5-6.5 25.5-13.25L25.5-13.25Q25.5-19.95 28.3-23.55 31.1-27.15 36.05-27.15L36.05-27.15ZM36.05-22.5Q33.9-22.5 32.9-20.38 31.9-18.25 31.9-13.25L31.9-13.25Q31.9-8.2 32.9-6.08 33.9-3.95 36.05-3.95L36.05-3.95Q38.2-3.95 39.2-6.08 40.2-8.2 40.2-13.25L40.2-13.25Q40.2-18.3 39.2-20.4 38.2-22.5 36.05-22.5L36.05-22.5ZM63.5-27.15Q66.34-27.15 68-25.1 69.65-23.05 69.65-19.6L69.65-19.6 69.65 0 63.5 0 63.5-18.9Q63.5-20.8 62.97-21.63 62.45-22.45 61.45-22.45L61.45-22.45Q59.34-22.45 57.3-18.5L57.3-18.5 57.3 0 51.15 0 51.15-26.45 56.5-26.45 56.95-23Q58.3-25.1 59.82-26.13 61.34-27.15 63.5-27.15L63.5-27.15ZM87.54-27.15Q90.39-27.15 92.04-25.1 93.69-23.05 93.69-19.6L93.69-19.6 93.69 0 87.54 0 87.54-18.9Q87.54-20.8 87.02-21.63 86.49-22.45 85.49-22.45L85.49-22.45Q83.39-22.45 81.34-18.5L81.34-18.5 81.34 0 75.19 0 75.19-26.45 80.54-26.45 80.99-23Q82.34-25.1 83.87-26.13 85.39-27.15 87.54-27.15L87.54-27.15ZM118.09-13.85Q118.09-13.4 117.94-11.3L117.94-11.3 104.29-11.3Q104.49-7.2 105.72-5.58 106.94-3.95 109.19-3.95L109.19-3.95Q110.74-3.95 111.99-4.48 113.24-5 114.69-6.15L114.69-6.15 117.24-2.65Q113.74 0.75 108.84 0.75L108.84 0.75Q103.64 0.75 100.86-2.85 98.09-6.45 98.09-13L98.09-13Q98.09-19.55 100.74-23.35 103.39-27.15 108.24-27.15L108.24-27.15Q112.89-27.15 115.49-23.78 118.09-20.4 118.09-13.85L118.09-13.85ZM112.09-15.3L112.09-15.65Q112.09-19.4 111.19-21.13 110.29-22.85 108.29-22.85L108.29-22.85Q106.44-22.85 105.47-21.18 104.49-19.5 104.29-15.3L104.29-15.3 112.09-15.3ZM131.89-27.15Q134.04-27.15 135.79-26.43 137.54-25.7 139.14-24.15L139.14-24.15 136.49-20.65Q135.39-21.55 134.41-21.98 133.44-22.4 132.29-22.4L132.29-22.4Q130.04-22.4 128.89-20.28 127.74-18.15 127.74-13.1L127.74-13.1Q127.74-8.2 128.91-6.2 130.09-4.2 132.29-4.2L132.29-4.2Q133.39-4.2 134.29-4.6 135.19-5 136.39-5.85L136.39-5.85 139.14-2.3Q135.94 0.75 131.99 0.75L131.99 0.75Q126.89 0.75 124.06-2.73 121.24-6.2 121.24-13L121.24-13Q121.24-17.4 122.54-20.6 123.84-23.8 126.26-25.48 128.69-27.15 131.89-27.15L131.89-27.15ZM153.34-5L155.49-1.2Q153.03 0.75 149.74 0.75L149.74 0.75Q146.28 0.75 144.49-1.23 142.69-3.2 142.69-6.6L142.69-6.6 142.69-22 139.59-22 139.59-26.45 142.69-26.45 142.69-32.3 148.84-33.05 148.84-26.45 153.84-26.45 153.24-22 148.84-22 148.84-6.6Q148.84-4.2 150.89-4.2L150.89-4.2Q151.53-4.2 152.03-4.38 152.53-4.55 153.34-5L153.34-5ZM158.03-26.45L164.18-26.45 164.18 0 158.03 0 158.03-26.45ZM161.08-39.65Q162.73-39.65 163.76-38.6 164.78-37.55 164.78-35.9L164.78-35.9Q164.78-34.3 163.76-33.25 162.73-32.2 161.08-32.2L161.08-32.2Q159.43-32.2 158.41-33.25 157.38-34.3 157.38-35.9L157.38-35.9Q157.38-37.55 158.41-38.6 159.43-39.65 161.08-39.65L161.08-39.65ZM182.23-27.15Q185.08-27.15 186.73-25.1 188.38-23.05 188.38-19.6L188.38-19.6 188.38 0 182.23 0 182.23-18.9Q182.23-20.8 181.71-21.63 181.18-22.45 180.18-22.45L180.18-22.45Q178.08-22.45 176.03-18.5L176.03-18.5 176.03 0 169.88 0 169.88-26.45 175.23-26.45 175.68-23Q177.03-25.1 178.56-26.13 180.08-27.15 182.23-27.15L182.23-27.15ZM211.88-29.85L213.43-25.1Q212.38-24.6 210.9-24.4 209.43-24.2 207.23-24.2L207.23-24.2Q209.33-23.2 210.35-21.53 211.38-19.85 211.38-17.4L211.38-17.4Q211.38-13.4 208.93-10.95 206.48-8.5 202.28-8.5L202.28-8.5Q201.03-8.5 199.73-8.9L199.73-8.9Q198.83-8.15 198.83-6.85L198.83-6.85Q198.83-5.85 199.38-5.35 199.93-4.85 201.43-4.85L201.43-4.85 204.23-4.85Q208.23-4.85 210.58-2.78 212.93-0.7 212.93 2.5L212.93 2.5Q212.93 6.3 210 8.58 207.08 10.85 201.68 10.85L201.68 10.85Q195.98 10.85 193.7 8.75 191.43 6.65 191.43 2.6L191.43 2.6 196.88 2.6Q196.88 4.75 197.88 5.65 198.88 6.55 201.73 6.55L201.73 6.55Q204.48 6.55 205.63 5.6 206.78 4.65 206.78 2.9L206.78 2.9Q206.78 1.2 205.83 0.4 204.88-0.4 202.88-0.4L202.88-0.4 200.98-0.4Q197.18-0.4 195.43-1.75 193.68-3.1 193.68-5.45L193.68-5.45Q193.68-6.8 194.4-8.03 195.13-9.25 196.38-10.2L196.38-10.2Q194.33-11.5 193.38-13.3 192.43-15.1 192.43-17.7L192.43-17.7Q192.43-22.05 195.03-24.58 197.63-27.1 202.03-27.1L202.03-27.1Q205.28-27.1 207.4-27.8 209.53-28.5 211.88-29.85L211.88-29.85ZM202.03-23Q200.28-23 199.38-21.75 198.48-20.5 198.48-17.8L198.48-17.8Q198.48-15.25 199.38-13.88 200.28-12.5 201.98-12.5L201.98-12.5Q203.73-12.5 204.58-13.73 205.43-14.95 205.43-17.85L205.43-17.85Q205.43-20.55 204.6-21.78 203.78-23 202.03-23L202.03-23ZM238.22-27.15Q242.12-27.15 244.12-23.58 246.12-20 246.12-13.3L246.12-13.3Q246.12-6.8 243.85-3.03 241.57 0.75 237.52 0.75L237.52 0.75Q234.32 0.75 232.17-2.1L232.17-2.1 232.17 10.15 226.02 10.85 226.02-26.45 231.47-26.45 231.72-23.25Q233.02-25.25 234.62-26.2 236.22-27.15 238.22-27.15L238.22-27.15ZM235.87-3.95Q237.77-3.95 238.77-6.13 239.77-8.3 239.77-13.25L239.77-13.25Q239.77-18.45 238.92-20.5 238.07-22.55 236.27-22.55L236.27-22.55Q233.97-22.55 232.17-19.25L232.17-19.25 232.17-6.45Q233.77-3.95 235.87-3.95L235.87-3.95ZM269.57-13.85Q269.57-13.4 269.42-11.3L269.42-11.3 255.77-11.3Q255.97-7.2 257.19-5.58 258.42-3.95 260.67-3.95L260.67-3.95Q262.22-3.95 263.47-4.48 264.72-5 266.17-6.15L266.17-6.15 268.72-2.65Q265.22 0.75 260.32 0.75L260.32 0.75Q255.12 0.75 252.34-2.85 249.57-6.45 249.57-13L249.57-13Q249.57-19.55 252.22-23.35 254.87-27.15 259.72-27.15L259.72-27.15Q264.37-27.15 266.97-23.78 269.57-20.4 269.57-13.85L269.57-13.85ZM263.57-15.3L263.57-15.65Q263.57-19.4 262.67-21.13 261.77-22.85 259.77-22.85L259.77-22.85Q257.92-22.85 256.94-21.18 255.97-19.5 255.77-15.3L255.77-15.3 263.57-15.3ZM283.27-27.15Q288.27-27.15 291.04-23.65 293.82-20.15 293.82-13.25L293.82-13.25Q293.82-6.65 291.02-2.95 288.22 0.75 283.27 0.75L283.27 0.75Q278.32 0.75 275.52-2.88 272.72-6.5 272.72-13.25L272.72-13.25Q272.72-19.95 275.52-23.55 278.32-27.15 283.27-27.15L283.27-27.15ZM283.27-22.5Q281.12-22.5 280.12-20.38 279.12-18.25 279.12-13.25L279.12-13.25Q279.12-8.2 280.12-6.08 281.12-3.95 283.27-3.95L283.27-3.95Q285.42-3.95 286.42-6.08 287.42-8.2 287.42-13.25L287.42-13.25Q287.42-18.3 286.42-20.4 285.42-22.5 283.27-22.5L283.27-22.5ZM310.56-27.15Q314.46-27.15 316.46-23.58 318.46-20 318.46-13.3L318.46-13.3Q318.46-6.8 316.19-3.03 313.91 0.75 309.87 0.75L309.87 0.75Q306.66 0.75 304.51-2.1L304.51-2.1 304.51 10.15 298.37 10.85 298.37-26.45 303.81-26.45 304.06-23.25Q305.37-25.25 306.96-26.2 308.56-27.15 310.56-27.15L310.56-27.15ZM308.21-3.95Q310.12-3.95 311.12-6.13 312.12-8.3 312.12-13.25L312.12-13.25Q312.12-18.45 311.26-20.5 310.41-22.55 308.62-22.55L308.62-22.55Q306.31-22.55 304.51-19.25L304.51-19.25 304.51-6.45Q306.12-3.95 308.21-3.95L308.21-3.95ZM328.66 0.75Q325.96 0.75 324.39-0.93 322.81-2.6 322.81-5.4L322.81-5.4 322.81-37.05 328.96-37.7 328.96-5.65Q328.96-5 329.26-4.6 329.56-4.2 330.16-4.2L330.16-4.2Q330.51-4.2 330.84-4.3 331.16-4.4 331.26-4.4L331.26-4.4 332.46-0.2Q330.76 0.75 328.66 0.75L328.66 0.75ZM354.36-13.85Q354.36-13.4 354.21-11.3L354.21-11.3 340.56-11.3Q340.76-7.2 341.98-5.58 343.21-3.95 345.46-3.95L345.46-3.95Q347.01-3.95 348.26-4.48 349.51-5 350.96-6.15L350.96-6.15 353.51-2.65Q350.01 0.75 345.11 0.75L345.11 0.75Q339.91 0.75 337.13-2.85 334.36-6.45 334.36-13L334.36-13Q334.36-19.55 337.01-23.35 339.66-27.15 344.51-27.15L344.51-27.15Q349.16-27.15 351.76-23.78 354.36-20.4 354.36-13.85L354.36-13.85ZM348.36-15.3L348.36-15.65Q348.36-19.4 347.46-21.13 346.56-22.85 344.56-22.85L344.56-22.85Q342.71-22.85 341.73-21.18 340.76-19.5 340.56-15.3L340.56-15.3 348.36-15.3Z" opacity="1" transform="matrix(1,0,0,1,0,0)" fill="#ffffff" class="slogan-text-1" data-fill-palette-color="quaternary" id="text-1"></path></svg></g></svg></g></svg></g></svg></g></svg></g></svg></g></svg></g><defs></defs></svg><rect width="384" height="360" fill="none" stroke="none" visibility="hidden"></rect></g></svg></g></svg>